# xmcd CD database file
#
# Track frame offsets:
#	182
#	15530
#	35047
#	49590
#	70337
#	82615
#	96780
#	120115
#	136260
#
# Disc length: 2076 seconds
#
# Revision: 0
# Processed by: cddbd v1.5.1PL0 Copyright (c) Steve Scherf et al.
# Submitted via: CDex 1.51
#
DISCID=63081a09
DTITLE=服部克久 - 音楽畑 Best Selection ? 〜Midnight Champagne〜
DYEAR=1900
DGENRE=Easy Listening
TTITLE0=星想い
TTITLE1=彗星伝説
TTITLE2=Close to me
TTITLE3=ディオリッシモ・残香
TTITLE4=ノスタルジア
TTITLE5=寒月
TTITLE6=修二会
TTITLE7=コンソレーション
TTITLE8=ミッドナイト・ブルー
EXTD=
EXTT0=
EXTT1=
EXTT2=
EXTT3=
EXTT4=
EXTT5=
EXTT6=
EXTT7=
EXTT8=
PLAYORDER=
